<svg xmlns="http://www.w3.org/2000/svg" width="30" height="30" viewBox="1047 701 30 30"><g data-name="Group 6 Copy"><path d="M1062 701c8.284 0 15 6.716 15 15 0 8.284-6.716 15-15 15-8.284 0-15-6.716-15-15 0-8.284 6.716-15 15-15Z" fill="#ccc" fill-rule="evenodd" data-name="Rectangle Copy 7"/><g data-name="Group 3"><g data-name="Group 3" clip-path="url(&quot;#a&quot;)" transform="rotate(-90 888.855 -166.526)"><path d="M6.665 13.47c0 .496-.294.768-.746.768h-.181c-.452 0-.746-.272-.746-.769V2.73L1.374 6.416c-.294.294-.723.362-1.04.045L.2 6.325c-.317-.317-.226-.724.068-1.018L5.354.22c.293-.294.655-.294.95 0l5.086 5.087c.294.294.384.701.068 1.018l-.136.135c-.316.317-.746.25-1.04-.045L6.665 2.73v10.74Z" fill="#fff" fill-rule="evenodd" data-name="Fill 1"/></g></g></g><defs><clipPath id="a"><path d="M0 14.238h11.657V0H0v14.238Z" data-name="Clip 2"/></clipPath></defs></svg>