<svg width="18" height="18" viewBox="0 0 18 18" fill="none" xmlns="http://www.w3.org/2000/svg">
<path d="M7.84844 0H9.34844C9.48177 0 9.54844 0.0666667 9.54844 0.2V17.8C9.54844 17.9333 9.48177 18 9.34844 18H7.84844C7.7151 18 7.64844 17.9333 7.64844 17.8V0.2C7.64844 0.0666667 7.7151 0 7.84844 0Z" fill="#a9bfa7"/>
<path d="M0.2 8.05029H17C17.1333 8.05029 17.2 8.11696 17.2 8.25029V9.75029C17.2 9.88363 17.1333 9.95029 17 9.95029H0.2C0.0666667 9.95029 0 9.88363 0 9.75029V8.25029C0 8.11696 0.0666667 8.05029 0.2 8.05029Z" fill="#a9bfa7"/>
</svg>
