<svg xmlns="http://www.w3.org/2000/svg" width="30" height="30" viewBox="1232 701 30 30"><g data-name="Group 6 Copy"><path d="M1247 701a15 15 0 0 1 15 15 15 15 0 0 1-15 15 15 15 0 0 1-15-15 15 15 0 0 1 15-15z" fill="#ccc" fill-rule="evenodd" data-name="Rectangle Copy 7"/><g data-name="Group 3"><g data-name="Group 3" clip-path="url(&quot;#a&quot;)" transform="rotate(-90 980.855 -258.526)"><path d="M6.665.769c0-.498-.294-.77-.746-.77h-.181c-.452 0-.746.272-.746.77v10.739L1.374 7.822C1.08 7.53.651 7.461.334 7.777L.2 7.913c-.317.316-.226.723.068 1.017l5.087 5.087c.293.294.655.294.95 0L11.39 8.93c.294-.294.384-.7.068-1.017l-.136-.136c-.316-.316-.746-.248-1.04.045l-3.617 3.686V.768Z" fill="#fff" fill-rule="evenodd" data-name="Fill 1"/></g></g></g><defs><clipPath id="a"><path d="M0 0h11.657v14.238H0V0Z" data-name="Clip 2"/></clipPath></defs></svg>