<svg width="294" height="354" viewBox="0 0 294 354" fill="none" xmlns="http://www.w3.org/2000/svg">
<path d="M284 9.5L0 293H284V9.5Z" fill="#E2DFDF"/>
<path d="M88 353.5V292.5H284V353.5H237V313H155.5V353.5H88Z" fill="#E2DFDF"/>
<path d="M284 10V354" stroke="#707070" stroke-width="1.5"/>
<path d="M0 293H293" stroke="#707070" stroke-width="1.5"/>
<path d="M274 261H293" stroke="#707070" stroke-width="1.5"/>
<path d="M274 229H293" stroke="#707070" stroke-width="1.5"/>
<path d="M274 197H293" stroke="#707070" stroke-width="1.5"/>
<path d="M274 165H293" stroke="#707070" stroke-width="1.5"/>
<path d="M274 133H293" stroke="#707070" stroke-width="1.5"/>
<path d="M274 101H293" stroke="#707070" stroke-width="1.5"/>
<path d="M274 69H293" stroke="#707070" stroke-width="1.5"/>
<path d="M274 37H293" stroke="#707070" stroke-width="1.5"/>
<path d="M274 10H293" stroke="#707070" stroke-width="1.5"/>
<path d="M284 20C289.523 20 294 15.5228 294 10C294 4.4772 289.523 0 284 0C278.477 0 274 4.4772 274 10C274 15.5228 278.477 20 284 20Z" fill="#F39200"/>
</svg>
