<svg width="301" height="301" viewBox="0 0 301 301" fill="none" xmlns="http://www.w3.org/2000/svg">
<g clip-path="url(#clip0_138_243)">
<path d="M150.51 2.50879V42.5088" stroke="#707070" stroke-width="4" stroke-linecap="round"/>
<path d="M150.51 259.153L150.51 299.153" stroke="#707070" stroke-width="4" stroke-linecap="round"/>
<path d="M258.515 150.141L298.515 150.141" stroke="#707070" stroke-width="4" stroke-linecap="round"/>
<path d="M2.51489 150.141L42.5149 150.141" stroke="#707070" stroke-width="4" stroke-linecap="round"/>
<path d="M13.2051 95.2695L50.2689 110.312" stroke="#707070" stroke-width="2" stroke-linecap="round"/>
<path d="M257.681 48.4385L228.635 75.9398" stroke="#707070" stroke-width="2" stroke-linecap="round"/>
<path d="M208.524 14.3525L192.725 51.1" stroke="#707070" stroke-width="2" stroke-linecap="round"/>
<path d="M287.815 95.2695L250.751 110.312" stroke="#707070" stroke-width="2" stroke-linecap="round"/>
<path d="M13.2051 206.012L50.2689 190.97" stroke="#707070" stroke-width="2" stroke-linecap="round"/>
<path d="M43.3391 252.843L72.3852 225.342" stroke="#707070" stroke-width="2" stroke-linecap="round"/>
<path d="M92.496 286.929L108.295 250.182" stroke="#707070" stroke-width="2" stroke-linecap="round"/>
<path d="M257.681 252.843L228.635 225.342" stroke="#707070" stroke-width="2" stroke-linecap="round"/>
<path d="M208.524 286.929L192.725 250.182" stroke="#707070" stroke-width="2" stroke-linecap="round"/>
<path d="M287.815 206.012L250.751 190.97" stroke="#707070" stroke-width="2" stroke-linecap="round"/>
<path d="M42.4167 48.0088C43.0589 47.5868 43.6961 47.6064 44.3728 47.8043C59.0831 52.0947 73.7965 56.3769 88.5129 60.6509C89.0123 60.796 89.452 61.004 89.7046 61.4837C90.231 62.4813 89.5945 63.7196 88.3811 64.0003C86.6866 64.3926 84.9884 64.7574 83.2911 65.1323L65.4965 69.0732C65.3343 69.108 65.1712 69.1531 64.9814 69.1994C64.7418 70.9447 64.5027 72.6826 64.2642 74.413C63.4255 80.5216 62.5867 86.6302 61.7479 92.7388C61.6752 93.2856 61.5202 93.7806 61.0715 94.1412C60.0949 94.926 58.8988 94.642 58.4557 93.4982C57.3183 90.5513 56.1965 87.5949 55.0701 84.6453C50.7129 73.2404 46.355 61.8362 41.9966 50.4327C41.7406 49.7636 41.6451 49.1171 42.0318 48.4265L42.4167 48.0088Z" fill="black"/>
<path d="M180.245 118.909L121.604 181.782L93.063 155.202L151.704 92.3282L180.245 118.909Z" fill="white" stroke="black" stroke-width="2.5"/>
<path d="M208.844 145.544L150.204 208.417L121.663 181.837L180.304 118.963L208.844 145.544Z" fill="white" stroke="black" stroke-width="2.5"/>
<path d="M136.645 158.57L121.232 175.095L99.7648 155.102L115.177 138.577L136.645 158.57Z" fill="white" stroke="black" stroke-width="2.5"/>
<path d="M114.857 168.187L129.433 152.56" stroke="black" stroke-width="2.5"/>
<path d="M107.109 160.972L121.684 145.344" stroke="black" stroke-width="2.5"/>
<path d="M128.455 166.382L107.04 146.438" stroke="black" stroke-width="2.5"/>
<path d="M155.029 138.859L139.616 155.385L118.148 135.392L133.561 118.866L155.029 138.859Z" fill="white" stroke="black" stroke-width="2.5"/>
<path d="M133.241 148.477L147.816 132.849" stroke="black" stroke-width="2.5"/>
<path d="M125.492 141.261L140.067 125.634" stroke="black" stroke-width="2.5"/>
<path d="M146.838 146.671L125.423 126.728" stroke="black" stroke-width="2.5"/>
<path d="M173.412 119.149L157.999 135.675L136.531 115.681L151.944 99.1561L173.412 119.149Z" fill="white" stroke="black" stroke-width="2.5"/>
<path d="M151.624 128.767L166.199 113.139" stroke="black" stroke-width="2.5"/>
<path d="M143.875 121.55L158.451 105.923" stroke="black" stroke-width="2.5"/>
<path d="M165.221 126.96L143.806 107.016" stroke="black" stroke-width="2.5"/>
</g>
<path d="M92.0186 12.2249L107.818 48.9723" stroke="#707070" stroke-width="2" stroke-linecap="round"/>
<defs>
<clipPath id="clip0_138_243">
<rect width="300" height="300" fill="white" transform="translate(0.514893 0.703369)"/>
</clipPath>
</defs>
</svg>
