<svg width="301" height="301" viewBox="0 0 301 301" fill="none" xmlns="http://www.w3.org/2000/svg">
<g clip-path="url(#clip0_138_388)">
<path d="M150.498 259.153L150.498 299.153" stroke="#707070" stroke-width="4" stroke-linecap="round"/>
<path d="M258.502 150.14L298.502 150.14" stroke="#707070" stroke-width="4" stroke-linecap="round"/>
<path d="M2.50244 150.14L42.5024 150.14" stroke="#707070" stroke-width="4" stroke-linecap="round"/>
<path d="M13.1924 95.2693L50.2562 110.312" stroke="#707070" stroke-width="2" stroke-linecap="round"/>
<path d="M43.3267 48.4382L72.3728 75.9396" stroke="#707070" stroke-width="2" stroke-linecap="round"/>
<path d="M92.4834 14.3523L108.283 51.0998" stroke="#707070" stroke-width="2" stroke-linecap="round"/>
<path d="M257.668 48.4382L228.622 75.9396" stroke="#707070" stroke-width="2" stroke-linecap="round"/>
<path d="M287.802 95.2693L250.738 110.312" stroke="#707070" stroke-width="2" stroke-linecap="round"/>
<path d="M13.1924 206.012L50.2562 190.97" stroke="#707070" stroke-width="2" stroke-linecap="round"/>
<path d="M43.3267 252.843L72.3728 225.342" stroke="#707070" stroke-width="2" stroke-linecap="round"/>
<path d="M92.4834 286.929L108.283 250.182" stroke="#707070" stroke-width="2" stroke-linecap="round"/>
<path d="M257.668 252.843L228.622 225.342" stroke="#707070" stroke-width="2" stroke-linecap="round"/>
<path d="M208.511 286.929L192.712 250.182" stroke="#707070" stroke-width="2" stroke-linecap="round"/>
<path d="M287.802 206.012L250.738 190.97" stroke="#707070" stroke-width="2" stroke-linecap="round"/>
<path d="M150.478 0.703369C149.733 0.889586 149.315 1.37148 149.002 2.00311C142.188 15.7278 135.366 29.4492 128.535 43.1672C128.303 43.6327 128.158 44.097 128.34 44.6078C128.717 45.671 130.059 46.0422 131.087 45.3401C132.524 44.36 133.943 43.3584 135.369 42.3644L150.327 31.9501C150.462 31.8545 150.606 31.7651 150.768 31.6569C152.214 32.6635 153.654 33.6655 155.088 34.6628C160.149 38.1859 165.209 41.7089 170.269 45.2319C170.721 45.549 171.19 45.7704 171.759 45.6849C172.998 45.4987 173.6 44.4266 173.059 43.3257C171.663 40.4922 170.249 37.6637 168.843 34.8365C163.41 23.9033 157.977 12.9702 152.545 2.03709C152.227 1.39539 151.816 0.887069 151.046 0.703369L150.478 0.703369Z" fill="black"/>
<path d="M193.781 150.523L107.808 151.195L107.475 112.195L193.448 111.523L193.781 150.523Z" fill="white" stroke="black" stroke-width="2.5"/>
<path d="M194.116 189.603L108.143 190.275L107.809 151.275L193.782 150.603L194.116 189.603Z" fill="white" stroke="black" stroke-width="2.5"/>
<path d="M135.004 146.149L112.407 146.326L112.156 116.991L134.753 116.815L135.004 146.149Z" fill="white" stroke="black" stroke-width="2.5"/>
<path d="M113.037 136.947L134.406 136.78" stroke="black" stroke-width="2.5"/>
<path d="M112.946 126.359L134.315 126.192" stroke="black" stroke-width="2.5"/>
<path d="M123.7 145.576L123.45 116.314" stroke="black" stroke-width="2.5"/>
<path d="M161.955 145.939L139.359 146.115L139.108 116.781L161.705 116.604L161.955 145.939Z" fill="white" stroke="black" stroke-width="2.5"/>
<path d="M139.989 136.736L161.358 136.569" stroke="black" stroke-width="2.5"/>
<path d="M139.898 126.148L161.267 125.981" stroke="black" stroke-width="2.5"/>
<path d="M150.651 145.365L150.401 116.103" stroke="black" stroke-width="2.5"/>
<path d="M188.907 145.728L166.311 145.905L166.06 116.57L188.656 116.393L188.907 145.728Z" fill="white" stroke="black" stroke-width="2.5"/>
<path d="M166.941 136.526L188.31 136.358" stroke="black" stroke-width="2.5"/>
<path d="M166.85 125.937L188.219 125.77" stroke="black" stroke-width="2.5"/>
<path d="M177.604 145.154L177.354 115.892" stroke="black" stroke-width="2.5"/>
</g>
<path d="M206.393 12.2249L190.593 48.9723" stroke="#707070" stroke-width="2" stroke-linecap="round"/>
<defs>
<clipPath id="clip0_138_388">
<rect width="300" height="300" fill="white" transform="translate(0.502197 0.703369)"/>
</clipPath>
</defs>
</svg>
