<svg width="25" height="25" viewBox="0 0 25 25" fill="none" xmlns="http://www.w3.org/2000/svg">
<path d="M13.2324 3.41094H11.7676C11.6562 3.41094 11.5176 3.43898 11.409 3.54763C11.3003 3.65628 11.2723 3.79489 11.2723 3.90625V21.0938C11.2723 21.2051 11.3003 21.3438 11.409 21.4524C11.5177 21.561 11.6564 21.589 11.7676 21.589H13.2324C13.3436 21.589 13.4822 21.5611 13.5909 21.4525C13.6997 21.3438 13.7278 21.2051 13.7278 21.0938V3.90625C13.7278 3.79488 13.6997 3.65625 13.591 3.5476C13.4823 3.43896 13.3437 3.41094 13.2324 3.41094Z" fill="#F39201" stroke="#F39201" stroke-width="0.6"/>
<path d="M20.7031 11.2723H4.29687C4.18552 11.2723 4.04691 11.3003 3.93825 11.409C3.8296 11.5176 3.80156 11.6562 3.80156 11.7676V13.2324C3.80156 13.3437 3.82959 13.4823 3.93822 13.591C4.04688 13.6997 4.1855 13.7278 4.29687 13.7278H20.7031C20.8145 13.7278 20.9531 13.6997 21.0618 13.591C21.1705 13.4824 21.1985 13.3437 21.1985 13.2324V11.7676C21.1985 11.6562 21.1704 11.5176 21.0618 11.4089C20.9531 11.3003 20.8145 11.2723 20.7031 11.2723Z" fill="#F39201" stroke="#F39201" stroke-width="0.6"/>
</svg>
