<svg width="294" height="345" viewBox="0 0 294 345" fill="none" xmlns="http://www.w3.org/2000/svg">
<g clip-path="url(#clip0_64_477)">
<path d="M284 27.5L0 284H284V27.5Z" fill="#E2DFDF"/>
<path d="M88 344.5V283.5H284V344.5H237V304H155.5V344.5H88Z" fill="#E2DFDF"/>
<path d="M284 1L284 345" stroke="#707070" stroke-width="1.5"/>
<path d="M0 284H293" stroke="#707070" stroke-width="1.5"/>
<path d="M274 252H293" stroke="#707070" stroke-width="1.5"/>
<path d="M274 220H293" stroke="#707070" stroke-width="1.5"/>
<path d="M274 188H293" stroke="#707070" stroke-width="1.5"/>
<path d="M274 156H293" stroke="#707070" stroke-width="1.5"/>
<path d="M274 124H293" stroke="#707070" stroke-width="1.5"/>
<path d="M274 92H293" stroke="#707070" stroke-width="1.5"/>
<path d="M274 60H293" stroke="#707070" stroke-width="1.5"/>
<path d="M274 1H293" stroke="#707070" stroke-width="1.5"/>
<path d="M274 28H293" stroke="#707070" stroke-width="1.5"/>
<path d="M284 38C289.523 38 294 33.5228 294 28C294 22.4772 289.523 18 284 18C278.477 18 274 22.4772 274 28C274 33.5228 278.477 38 284 38Z" fill="#a9bfa7"/>
</g>
<defs>
<clipPath id="clip0_64_477">
<rect width="294" height="345" fill="white"/>
</clipPath>
</defs>
</svg>
