<svg width="294" height="345" viewBox="0 0 294 345" fill="none" xmlns="http://www.w3.org/2000/svg">
<g clip-path="url(#clip0_64_506)">
<path d="M284 251.5L0 284H284V251.5Z" fill="#E2DFDF"/>
<path d="M88 344.5V283.5H284V344.5H237V304H155.5V344.5H88Z" fill="#E2DFDF"/>
<path d="M284 1L284 345" stroke="#707070" stroke-width="1.5"/>
<path d="M0 284H293" stroke="#707070" stroke-width="1.5"/>
<path d="M274 252H293" stroke="#707070" stroke-width="1.5"/>
<path d="M274 220H293" stroke="#707070" stroke-width="1.5"/>
<path d="M274 188H293" stroke="#707070" stroke-width="1.5"/>
<path d="M274 156H293" stroke="#707070" stroke-width="1.5"/>
<path d="M274 124H293" stroke="#707070" stroke-width="1.5"/>
<path d="M274 92H293" stroke="#707070" stroke-width="1.5"/>
<path d="M274 60H293" stroke="#707070" stroke-width="1.5"/>
<path d="M274 28H293" stroke="#707070" stroke-width="1.5"/>
<path d="M274 1H293" stroke="#707070" stroke-width="1.5"/>
<path d="M284 261C289.523 261 294 256.523 294 251C294 245.477 289.523 241 284 241C278.477 241 274 245.477 274 251C274 256.523 278.477 261 284 261Z" fill="#a9bfa7"/>
</g>
<defs>
<clipPath id="clip0_64_506">
<rect width="294" height="345" fill="white"/>
</clipPath>
</defs>
</svg>
