<svg width="64" height="65" viewBox="0 0 64 65" fill="none" xmlns="http://www.w3.org/2000/svg">
<path d="M31.7454 1.96326L61 35.8847H55.6577V62.0358H7.83323V35.8728H3L31.7454 1.96445V1.96326Z" stroke="#F39200" stroke-width="2" stroke-linecap="round" stroke-linejoin="round"/>
<path d="M25.748 43.6121H38.253V62.0357H25.748V43.6121Z" stroke="#F39200" stroke-width="2" stroke-linecap="round" stroke-linejoin="round"/>
<path d="M37.4294 27.1788C37.4445 27.9006 37.3152 28.6182 37.0491 29.2895C36.7831 29.9608 36.3856 30.5722 35.88 31.088C35.3744 31.6039 34.7708 32.0137 34.1046 32.2935C33.4384 32.5733 32.7231 32.7174 32.0004 32.7174C31.2778 32.7174 30.5624 32.5733 29.8962 32.2935C29.23 32.0137 28.6265 31.6039 28.1208 31.088C27.6152 30.5722 27.2177 29.9608 26.9517 29.2895C26.6856 28.6182 26.5564 27.9006 26.5715 27.1788C26.6012 25.7599 27.1862 24.4092 28.2011 23.4162C29.216 22.4232 30.5799 21.8671 32.0004 21.8671C33.4209 21.8671 34.7848 22.4232 35.7997 23.4162C36.8146 24.4092 37.3997 25.7599 37.4294 27.1788Z" stroke="#F39200" stroke-width="2" stroke-linecap="round" stroke-linejoin="round"/>
</svg>
