<svg width="56" height="50" viewBox="0 0 56 50" fill="none" xmlns="http://www.w3.org/2000/svg">
<path d="M45.461 40.6069V48.5319H5.98999V25.5509H2V20.7209L25.725 8.75391L49.87 20.5119V25.6969H45.461V29.7339" stroke="#F39200" stroke-width="2" stroke-linecap="round" stroke-linejoin="round"/>
<path d="M21.2373 35.062H30.6333V48.532H21.2373V35.062Z" stroke="#F39200" stroke-width="2" stroke-linecap="round" stroke-linejoin="round"/>
<path d="M37.6782 22.1079L53.9712 38.3999L48.7422 43.6279L32.4502 27.3359" stroke="#F39200" stroke-width="2" stroke-linecap="round" stroke-linejoin="round"/>
<path d="M11.3926 14.97C11.4058 11.256 12.8922 7.69902 15.5254 5.07986C18.1586 2.46069 21.7235 0.9934 25.4375 1.00002C29.1515 1.00665 32.7111 2.48666 35.335 5.1152C37.9588 7.74373 39.4325 11.306 39.4325 15.02C39.4325 18.734 37.9588 22.2963 35.335 24.9248C32.7111 27.5534 29.1515 29.0334 25.4375 29.04C21.7235 29.0466 18.1586 27.5793 15.5254 24.9601C12.8922 22.3409 11.4058 18.784 11.3926 15.07V14.97Z" stroke="#F39200" stroke-width="2" stroke-linecap="round" stroke-linejoin="round"/>
</svg>
