<svg width="302" height="302" viewBox="0 0 302 302" fill="none" xmlns="http://www.w3.org/2000/svg">
<g filter="url(#filter0_d_102_16)">
<path d="M298 147C298 228.186 232.186 294 151 294C69.8141 294 4 228.186 4 147C4 65.8141 69.8141 0 151 0C232.186 0 298 65.8141 298 147ZM43.5846 147C43.5846 206.324 91.6761 254.415 151 254.415C210.324 254.415 258.415 206.324 258.415 147C258.415 87.6761 210.324 39.5846 151 39.5846C91.6761 39.5846 43.5846 87.6761 43.5846 147Z" fill="url(#paint0_radial_102_16)"/>
</g>
<defs>
<filter id="filter0_d_102_16" x="0" y="0" width="302" height="302" filterUnits="userSpaceOnUse" color-interpolation-filters="sRGB">
<feFlood flood-opacity="0" result="BackgroundImageFix"/>
<feColorMatrix in="SourceAlpha" type="matrix" values="0 0 0 0 0 0 0 0 0 0 0 0 0 0 0 0 0 0 127 0" result="hardAlpha"/>
<feOffset dy="4"/>
<feGaussianBlur stdDeviation="2"/>
<feComposite in2="hardAlpha" operator="out"/>
<feColorMatrix type="matrix" values="0 0 0 0 0 0 0 0 0 0 0 0 0 0 0 0 0 0 0.25 0"/>
<feBlend mode="normal" in2="BackgroundImageFix" result="effect1_dropShadow_102_16"/>
<feBlend mode="normal" in="SourceGraphic" in2="effect1_dropShadow_102_16" result="shape"/>
</filter>
<radialGradient id="paint0_radial_102_16" cx="0" cy="0" r="1" gradientUnits="userSpaceOnUse" gradientTransform="translate(151 299) rotate(-90) scale(303)">
<stop offset="0.0425163" stop-color="#E94B40"/>
<stop offset="0.66568" stop-color="#F39200"/>
<stop offset="0.882084" stop-color="white"/>
</radialGradient>
</defs>
</svg>
