<svg width="301" height="301" viewBox="0 0 301 301" fill="none" xmlns="http://www.w3.org/2000/svg">
<g clip-path="url(#clip0_138_280)">
<path d="M150.257 2.3811V42.3811" stroke="#707070" stroke-width="4" stroke-linecap="round"/>
<path d="M150.257 259.026L150.257 299.026" stroke="#707070" stroke-width="4" stroke-linecap="round"/>
<path d="M258.261 150.013L298.261 150.013" stroke="#707070" stroke-width="4" stroke-linecap="round"/>
<path d="M2.26172 150.013L42.2617 150.013" stroke="#707070" stroke-width="4" stroke-linecap="round"/>
<path d="M12.9519 95.1418L50.0157 110.184" stroke="#707070" stroke-width="2" stroke-linecap="round"/>
<path d="M43.0859 48.3108L72.1321 75.8121" stroke="#707070" stroke-width="2" stroke-linecap="round"/>
<path d="M92.2429 14.2249L108.042 50.9723" stroke="#707070" stroke-width="2" stroke-linecap="round"/>
<path d="M257.428 48.3108L228.382 75.8121" stroke="#707070" stroke-width="2" stroke-linecap="round"/>
<path d="M208.271 14.2249L192.471 50.9723" stroke="#707070" stroke-width="2" stroke-linecap="round"/>
<path d="M287.562 95.1418L250.498 110.184" stroke="#707070" stroke-width="2" stroke-linecap="round"/>
<path d="M12.9519 205.885L50.0157 190.842" stroke="#707070" stroke-width="2" stroke-linecap="round"/>
<path d="M257.428 252.716L228.382 225.214" stroke="#707070" stroke-width="2" stroke-linecap="round"/>
<path d="M208.271 286.802L192.471 250.054" stroke="#707070" stroke-width="2" stroke-linecap="round"/>
<path d="M287.562 205.885L250.498 190.842" stroke="#707070" stroke-width="2" stroke-linecap="round"/>
<path d="M42.7275 253.749C43.3522 254.197 43.9897 254.203 44.6738 254.032C59.5446 250.336 74.4182 246.649 89.2944 242.97C89.7992 242.845 90.2469 242.655 90.5186 242.185C91.0847 241.21 90.4985 239.947 89.2972 239.618C87.6199 239.158 85.9377 238.725 84.2569 238.282L66.6349 233.629C66.4743 233.588 66.3132 233.536 66.1254 233.483C65.9561 231.729 65.787 229.983 65.6183 228.244C65.0256 222.107 64.4329 215.97 63.8402 209.832C63.7895 209.283 63.6545 208.782 63.2207 208.404C62.2765 207.58 61.0699 207.816 60.5812 208.941C59.3263 211.84 58.0866 214.749 56.8426 217.651C52.0307 228.872 47.2182 240.091 42.4051 251.311C42.1224 251.969 42.0011 252.611 42.3597 253.317L42.7275 253.749Z" fill="black"/>
<path d="M120.895 119.518L179.145 182.754L150.478 209.199L92.2281 145.963L120.895 119.518Z" fill="white" stroke="black" stroke-width="2.5"/>
<path d="M149.62 93.0185L207.87 156.254L179.203 182.699L120.953 119.464L149.62 93.0185Z" fill="white" stroke="black" stroke-width="2.5"/>
<path d="M157.138 165.997L172.448 182.618L150.886 202.509L135.576 185.888L157.138 165.997Z" fill="white" stroke="black" stroke-width="2.5"/>
<path d="M165.077 188.451L150.599 172.734" stroke="black" stroke-width="2.5"/>
<path d="M157.295 195.631L142.817 179.914" stroke="black" stroke-width="2.5"/>
<path d="M164.307 174.756L142.798 194.598" stroke="black" stroke-width="2.5"/>
<path d="M138.877 146.174L154.188 162.794L132.625 182.685L117.315 166.065L138.877 146.174Z" fill="white" stroke="black" stroke-width="2.5"/>
<path d="M146.816 168.627L132.338 152.91" stroke="black" stroke-width="2.5"/>
<path d="M139.034 175.807L124.556 160.09" stroke="black" stroke-width="2.5"/>
<path d="M146.046 154.933L124.537 174.775" stroke="black" stroke-width="2.5"/>
<path d="M120.616 126.35L135.927 142.97L114.364 162.861L99.0543 146.241L120.616 126.35Z" fill="white" stroke="black" stroke-width="2.5"/>
<path d="M128.556 148.803L114.077 133.086" stroke="black" stroke-width="2.5"/>
<path d="M120.773 155.983L106.294 140.266" stroke="black" stroke-width="2.5"/>
<path d="M127.784 135.109L106.275 154.951" stroke="black" stroke-width="2.5"/>
</g>
<path d="M90.4961 284.929L106.296 248.182" stroke="#707070" stroke-width="2" stroke-linecap="round"/>
<defs>
<clipPath id="clip0_138_280">
<rect width="300" height="300" fill="white" transform="translate(0.261719 0.703369)"/>
</clipPath>
</defs>
</svg>
