<svg xmlns="http://www.w3.org/2000/svg" width="60" height="60" viewBox="1047 601.95 60 60"><g data-name="Gruppe 180"><g data-name="Gruppe 160"><g data-name="Gruppe 154"><g data-name="Gruppe 152"><g data-name="Ellipse 7"><path d="M1047 631.9a30 30 0 1 1 0 .1z" fill-rule="evenodd"/><path d="M1048 631.902a29 29 0 1 1 0 .096z" stroke-linejoin="round" stroke-linecap="round" stroke-width="1.93334" stroke="#a9bfa7" fill="transparent"/></g></g></g></g><g data-name="Gruppe 179"><g data-name="Pfad 27"><path d="M1074.222 650.195a.651.651 0 0 1-.644-.558c-1.745-12.151-3.093-13.894-12.021-15.538a.65.65 0 0 1 0-1.28c8.928-1.643 10.276-3.386 12.02-15.537a.651.651 0 0 1 1.29 0c1.744 12.151 3.092 13.894 12.02 15.538a.65.65 0 0 1 0 1.28c-8.928 1.643-10.276 3.386-12.02 15.537a.65.65 0 0 1-.645.558m-9.474-16.728c6.286 1.661 8.12 4.475 9.473 11.929.69-3.812 1.48-6.323 2.878-8.162 1.502-1.978 3.631-3.024 6.598-3.782-6.286-1.661-8.12-4.474-9.475-11.928-.689 3.811-1.48 6.322-2.876 8.161-1.502 1.978-3.631 3.023-6.598 3.782" fill="#fff" fill-rule="evenodd"/><path d="M1074.222 650.195a.651.651 0 0 1-.644-.558c-1.745-12.151-3.093-13.894-12.021-15.538a.65.65 0 0 1 0-1.28c8.928-1.643 10.276-3.386 12.02-15.537a.651.651 0 0 1 1.29 0c1.744 12.151 3.092 13.894 12.02 15.538a.65.65 0 0 1 0 1.28c-8.928 1.643-10.276 3.386-12.02 15.537a.65.65 0 0 1-.645.558m-9.474-16.728c6.286 1.661 8.12 4.475 9.473 11.929.69-3.812 1.48-6.323 2.878-8.162 1.502-1.978 3.631-3.024 6.598-3.782-6.286-1.661-8.12-4.474-9.475-11.928-.689 3.811-1.48 6.322-2.876 8.161-1.502 1.978-3.631 3.023-6.598 3.782" stroke-linejoin="round" stroke-linecap="round" stroke-width=".5" stroke="#fff" fill="transparent"/></g><path d="M1087.313 627.99a.65.65 0 0 1-.644-.559c-.67-4.67-1.13-5.276-4.488-5.894a.65.65 0 0 1 0-1.28c3.357-.618 3.819-1.223 4.488-5.894a.651.651 0 0 1 1.288 0c.669 4.67 1.13 5.276 4.487 5.894a.65.65 0 0 1 0 1.28c-3.357.618-3.818 1.224-4.487 5.894a.65.65 0 0 1-.644.558m-2.56-7.092c1.386.585 2.09 1.475 2.56 3.044.47-1.569 1.173-2.459 2.56-3.044-1.387-.585-2.09-1.475-2.56-3.043-.47 1.568-1.174 2.458-2.56 3.043" fill="#fff" fill-rule="evenodd" data-name="Pfad 28"/></g></g></svg>