<svg xmlns="http://www.w3.org/2000/svg" width="60" height="60" viewBox="1047 324.95 60 60"><g data-name="Gruppe 188"><g data-name="Gruppe 151"><g data-name="Ellipse 7"><path d="M1047 354.9a30 30 0 1 1 0 .1z" fill-rule="evenodd"/><path d="M1048 354.902a29 29 0 1 1 0 .096z" stroke-linejoin="round" stroke-linecap="round" stroke-width="1.93334" stroke="#a9bfa7" fill="transparent"/></g></g><path d="M1086.056 363.974h-18.774a.73.73 0 0 1-.672-.486l-4.576-13.97a.715.715 0 0 1 1.001-.857l8.65 4.29 4.39-8.58a.744.744 0 0 1 1.287 0l4.39 8.65 8.65-4.289a.715.715 0 0 1 .787.1.758.758 0 0 1 .214.772l-4.675 13.87a.7.7 0 0 1-.672.5Zm-18.245-1.43h17.73l3.946-11.767-7.735 3.846a.73.73 0 0 1-.958-.315l-4.075-8.05-4.075 8.036a.73.73 0 0 1-.958.315l-7.75-3.904 3.875 11.84Z" fill="#fff" fill-rule="evenodd" data-name="Pfad 33"/></g></svg>