<svg xmlns="http://www.w3.org/2000/svg" width="60" height="60" viewBox="1047 461.95 60 60"><g data-name="Gruppe 153"><g data-name="Gruppe 152"><g data-name="Ellipse 7"><path d="M1047 491.9a30 30 0 1 1 0 .1z" fill-rule="evenodd"/><path d="M1048 491.902a29 29 0 1 1 0 .096z" stroke-linejoin="round" stroke-linecap="round" stroke-width="1.93334" stroke="#f39200" fill="transparent"/></g></g><path d="M1089.684 501.969a.451.451 0 0 1-.46.533h-28.081a.466.466 0 0 1-.474-.535l2.272-18.404a.627.627 0 0 1 .605-.535h22.752c.296 0 .575.24.619.533l2.767 18.408Zm-23.36-19.022a.072.072 0 0 0 .073.08h19.9c.297 0 .576.24.62.534l2.463 16.385a.033.033 0 0 0 .032.028h3.433c.296 0 .503-.24.459-.533l-2.767-18.408a.648.648 0 0 0-.62-.533h-22.751a.627.627 0 0 0-.605.535l-.236 1.912Zm-4.024 5.807 25.38-.11m-26.074 7.018 27.141.076m-9.614-12.535 1.23 19.299m-10.373-19.474-1.459 19.474" stroke-linejoin="round" stroke-linecap="round" stroke-width="1.5" stroke="#fff" fill="transparent" data-name="Pfad 26"/></g></svg>