<svg xmlns="http://www.w3.org/2000/svg" width="60" height="60" viewBox="1047 515.95 60 60"><g data-name="Gruppe 183"><g data-name="Gruppe 160"><g data-name="Gruppe 154"><g data-name="Gruppe 152"><g data-name="Ellipse 7"><path d="M1047 545.9a30 30 0 1 1 0 .1z" fill-rule="evenodd"/><path d="M1048 545.902a29 29 0 1 1 0 .096z" stroke-linejoin="round" stroke-linecap="round" stroke-width="1.93334" stroke="#a9bfa7" fill="transparent"/></g></g></g></g><g data-name="Gruppe 182"><path d="M1075.998 545.288a.774.774 0 0 1-.597-.275.758.758 0 0 1-.193-.628c0-.146 1.935-14.385 14.513-14.385.408.004.75.306.807.71a14.32 14.32 0 0 1-3.08 10.304c-2.532 2.838-6.37 4.274-11.45 4.274Zm12.9-13.643c-8.852.467-11.287 9.111-11.949 12.014a12.482 12.482 0 0 0 9.24-3.71 12.45 12.45 0 0 0 2.726-8.304Z" fill="#fff" fill-rule="evenodd" data-name="Pfad 3"/><path d="M1075.998 545.271h-.097c-.113 0-10.901-1.467-10.901-10.981a.822.822 0 0 1 .71-.807 10.87 10.87 0 0 1 7.837 2.306 11.046 11.046 0 0 1 3.225 8.676.774.774 0 0 1-.274.597.822.822 0 0 1-.5.21Zm-9.353-10.24c.451 6.064 6.225 7.95 8.53 8.467a8.934 8.934 0 0 0-2.693-6.45 9.111 9.111 0 0 0-5.837-2.017Z" fill="#fff" fill-rule="evenodd" data-name="Pfad 4"/><path d="M1075.998 551.948a.806.806 0 0 1-.806-.806v-6.693a.806.806 0 1 1 1.612 0v6.66a.806.806 0 0 1-.806.839Z" fill="#fff" fill-rule="evenodd" data-name="Pfad 5"/><path d="M1080.19 562.188h-7.74a5.644 5.644 0 0 1-5.644-5.644v-5.403c0-.445.361-.806.806-.806h17.417c.445 0 .806.361.806.806v5.338a5.644 5.644 0 0 1-5.644 5.709Zm-11.771-10.24v4.531a4.048 4.048 0 0 0 4.031 4.096h7.74a4.048 4.048 0 0 0 4.032-4.031v-4.596h-15.803Z" fill="#fff" fill-rule="evenodd" data-name="Pfad 6"/></g></g></svg>