<svg xmlns="http://www.w3.org/2000/svg" width="60" height="60" viewBox="1047 420.95 60 60"><g data-name="Gruppe 186"><g data-name="Gruppe 153"><g data-name="Gruppe 152"><g data-name="Ellipse 7"><path d="M1047 450.9a30 30 0 1 1 0 .1z" fill-rule="evenodd"/><path d="M1048 450.902a29 29 0 1 1 0 .096z" stroke-linejoin="round" stroke-linecap="round" stroke-width="1.93334" stroke="#a9bfa7" fill="transparent"/></g></g></g><g data-name="Gruppe 185"><path d="M1086.808 463.333h-19.206a5.602 5.602 0 0 1-5.601-5.666v-11.204a5.602 5.602 0 0 1 5.601-5.537h19.206c3.07 0 5.567 2.47 5.602 5.538v11.203a5.602 5.602 0 0 1-5.602 5.666Zm-19.206-20.807a4.017 4.017 0 0 0-4.001 3.937v11.204a4.001 4.001 0 0 0 4.001 4.065h19.206a4.001 4.001 0 0 0 4.001-4.065v-11.204a4.017 4.017 0 0 0-4.001-3.937h-19.206Z" fill="#fff" fill-rule="evenodd" data-name="Pfad 29"/><path d="M1091.61 457.667h-8.883a4.801 4.801 0 0 1-4.722-4.722v-1.68a4.802 4.802 0 0 1 4.722-4.802h8.882a.8.8 0 0 1 0 1.6h-8.882a3.201 3.201 0 0 0-3.121 3.202v1.76a3.201 3.201 0 0 0 3.12 3.041h8.883a.8.8 0 0 1 0 1.6Z" fill="#fff" fill-rule="evenodd" data-name="Pfad 30"/><path d="M1085.207 452.865a.8.8 0 0 1-.736-.48.768.768 0 0 1 0-.32.752.752 0 0 1 .24-.56.784.784 0 0 1 1.12 0 .752.752 0 0 1 .24.56.768.768 0 0 1 0 .32.672.672 0 0 1-.175.256.8.8 0 0 1-.689.224Z" fill="#fff" fill-rule="evenodd" data-name="Pfad 31"/><path d="M1068.13 442.526a.81.81 0 0 1-.24-1.6l14.789-4.802a2.545 2.545 0 0 1 3.329 2.337v3.201a.8.8 0 0 1-1.6 0v-3.2a.928.928 0 0 0-.385-.753.944.944 0 0 0-.848-.128l-14.788 4.801a.704.704 0 0 1-.257.144Z" fill="#fff" fill-rule="evenodd" data-name="Pfad 32"/></g></g></svg>