<svg xmlns="http://www.w3.org/2000/svg" viewBox="0 0 99.93 100.18"><defs><style>.cls-1{fill:#f8983c;}.cls-2{fill:#fd912b;}.cls-3{fill:#fff;}</style></defs><g id="Layer_2" data-name="Layer 2"><g id="Layer_1-2" data-name="Layer 1"><path class="cls-1" d="M48.5,100.18q-.06-8.7-.1-17.4c0-1.34-.19-3,1.65-3.2s2,1.58,2,2.9c-.12,5.9.78,11.84-.56,17.7Z"/><path class="cls-2" d="M49.4,73.52c-12.95,0-22.69-9.81-22.66-22.86A22.58,22.58,0,0,1,49.09,28.11,23.08,23.08,0,0,1,72.18,50.94,22.69,22.69,0,0,1,49.4,73.52Zm9.18-16.38-3.23,3.12M44.86,52.93c-1.46,1.51-3,3-4.44,4.48m2.15-9.94"/><path class="cls-1" d="M29.56,72.25a10.9,10.9,0,0,1-1.14,1.57q-5.46,5.5-11,11c-.89.88-1.81,1.87-3.12.66s-.38-2.21.5-3.1q5.6-5.62,11.23-11.23c.61-.61,1.25-1.26,2.23-.83A2.1,2.1,0,0,1,29.56,72.25Z"/><path class="cls-1" d="M52,10.45c0,2.6,0,5.19,0,7.78,0,1.16-.26,2.33-1.75,2.36s-1.8-1.05-1.8-2.27q0-8,0-15.92c0-1.21.35-2.35,1.72-2.4S51.94,1.11,52,2.31C52,5,52,7.74,52,10.45Z"/><path class="cls-1" d="M15.81,13.89a16.26,16.26,0,0,1,1.67,1.29q5.4,5.36,10.75,10.74c.86.87,2,1.86.81,3.11s-2.45.34-3.46-.66C22,24.79,18.42,21.22,14.86,17.62c-.68-.69-1.51-1.4-.94-2.55A2.11,2.11,0,0,1,15.81,13.89Z"/><path class="cls-1" d="M85.68,83.82a1.87,1.87,0,0,1-.77,1.85,1.46,1.46,0,0,1-2-.14c-4.13-4.08-8.26-8.17-12.34-12.3a1.68,1.68,0,0,1,.15-2.62,1.53,1.53,0,0,1,2.31.13q6.06,6,12.06,12.07A4,4,0,0,1,85.68,83.82Z"/><path class="cls-1" d="M85.72,15.37a3.08,3.08,0,0,1-1.27,2.43c-3.56,3.58-7.14,7.14-10.7,10.73-.94.94-2,1.75-3.15.59s-.29-2.23.6-3.13q5.47-5.5,11-11c.69-.69,1.44-1.52,2.54-.82A4.49,4.49,0,0,1,85.72,15.37Z"/><path class="cls-2" d="M10.17,52C7.58,52,5,52,2.42,52,1.32,51.94.07,52,0,50.42s1.07-1.75,2.24-1.76H18.11c1.17,0,2.3.23,2.23,1.78S19,51.94,17.91,52C15.33,52,12.75,52,10.17,52Z"/><path class="cls-2" d="M89.62,51.94c-2.73,0-5.46,0-8.19,0-1.14,0-1.93-.43-1.86-1.74.05-1.09.79-1.5,1.74-1.5q8.37,0,16.74,0c1.12,0,1.93.5,1.87,1.78S98.82,51.94,97.8,52c-2.73,0-5.45,0-8.18,0Z"/><g id="_icons" data-name=" icons"><path class="cls-3" d="M39.81,60.59a1.26,1.26,0,0,0,1,.42,1.24,1.24,0,0,0,1-.42l7.35-7.35,7.35,7.35a1.33,1.33,0,0,0,1.94,0,1.35,1.35,0,0,0,0-1.94L51,51.3,58.39,44A1.37,1.37,0,0,0,56.45,42L49.1,49.36,41.75,42A1.37,1.37,0,0,0,39.81,44l7.35,7.35-7.35,7.35A1.35,1.35,0,0,0,39.81,60.59Z"/></g></g></g></svg>