<svg width="301" height="302" viewBox="0 0 301 302" fill="none" xmlns="http://www.w3.org/2000/svg">
<path d="M150.032 2.3811V42.3811" stroke="#707070" stroke-width="4" stroke-linecap="round"/>
<path d="M150.032 259.026L150.032 299.026" stroke="#707070" stroke-width="4" stroke-linecap="round"/>
<path d="M258.037 150.013L298.037 150.013" stroke="#707070" stroke-width="4" stroke-linecap="round"/>
<path d="M42.8618 48.3108L71.9079 75.8121" stroke="#707070" stroke-width="2" stroke-linecap="round"/>
<path d="M92.0186 14.2249L107.818 50.9723" stroke="#707070" stroke-width="2" stroke-linecap="round"/>
<path d="M257.204 48.3108L228.158 75.8121" stroke="#707070" stroke-width="2" stroke-linecap="round"/>
<path d="M208.047 14.2249L192.247 50.9723" stroke="#707070" stroke-width="2" stroke-linecap="round"/>
<path d="M287.337 95.1418L250.274 110.184" stroke="#707070" stroke-width="2" stroke-linecap="round"/>
<path d="M12.7277 205.885L49.7915 190.842" stroke="#707070" stroke-width="2" stroke-linecap="round"/>
<path d="M42.8618 252.716L71.9079 225.214" stroke="#707070" stroke-width="2" stroke-linecap="round"/>
<path d="M92.0186 286.802L107.818 250.054" stroke="#707070" stroke-width="2" stroke-linecap="round"/>
<path d="M257.204 252.716L228.158 225.214" stroke="#707070" stroke-width="2" stroke-linecap="round"/>
<path d="M208.047 286.802L192.247 250.054" stroke="#707070" stroke-width="2" stroke-linecap="round"/>
<path d="M287.337 205.885L250.274 190.842" stroke="#707070" stroke-width="2" stroke-linecap="round"/>
<path d="M0.200435 149.733C0.386652 148.988 0.86855 148.57 1.50018 148.257C15.2249 141.443 28.9462 134.621 42.6642 127.79C43.1298 127.558 43.5941 127.413 44.1049 127.595C45.1681 127.972 45.5393 129.314 44.8372 130.342C43.857 131.779 42.8555 133.198 41.8615 134.624L31.4472 149.582C31.3515 149.717 31.2622 149.861 31.154 150.023C32.1606 151.469 33.1625 152.909 34.1599 154.343C37.6829 159.404 41.206 164.464 44.729 169.524C45.0461 169.976 45.2675 170.445 45.1819 171.014C44.9957 172.253 43.9237 172.854 42.8228 172.314C39.9892 170.918 37.1608 169.504 34.3335 168.098C23.4004 162.665 12.4673 157.232 1.53415 151.8C0.892459 151.482 0.384136 151.071 0.200435 150.301L0.200435 149.733Z" fill="black"/>
<path d="M150.175 107.388L149.08 193.357L110.082 192.889L111.176 106.92L150.175 107.388Z" fill="white" stroke="black" stroke-width="2.5"/>
<path d="M189.253 107.857L188.159 193.825L149.16 193.357L150.255 107.389L189.253 107.857Z" fill="white" stroke="black" stroke-width="2.5"/>
<path d="M144.594 166.063L144.307 188.659L114.973 188.307L115.261 165.711L144.594 166.063Z" fill="white" stroke="black" stroke-width="2.5"/>
<path d="M134.943 187.836L135.215 166.468" stroke="black" stroke-width="2.5"/>
<path d="M124.355 187.709L124.627 166.342" stroke="black" stroke-width="2.5"/>
<path d="M143.789 177.353L114.528 177.002" stroke="black" stroke-width="2.5"/>
<path d="M144.938 139.113L144.65 161.708L115.316 161.356L115.604 138.761L144.938 139.113Z" fill="white" stroke="black" stroke-width="2.5"/>
<path d="M135.286 160.886L135.558 139.518" stroke="black" stroke-width="2.5"/>
<path d="M124.698 160.759L124.97 139.391" stroke="black" stroke-width="2.5"/>
<path d="M144.132 150.403L114.871 150.052" stroke="black" stroke-width="2.5"/>
<path d="M145.281 112.162L144.993 134.758L115.659 134.406L115.947 111.81L145.281 112.162Z" fill="white" stroke="black" stroke-width="2.5"/>
<path d="M135.629 133.935L135.901 112.567" stroke="black" stroke-width="2.5"/>
<path d="M125.041 133.808L125.313 112.44" stroke="black" stroke-width="2.5"/>
<path d="M144.474 123.452L115.213 123.1" stroke="black" stroke-width="2.5"/>
<path d="M11.2051 95.2695L48.2689 110.312" stroke="#707070" stroke-width="2" stroke-linecap="round"/>
</svg>
