<svg id="Ebene_1" data-name="Ebene 1" xmlns="http://www.w3.org/2000/svg" viewBox="0 0 2017.05 507.38"><defs><style>.cls-1{fill:#1d1d1b;}</style></defs><path class="cls-1" d="M108,180.18c-15.63,7.75-35.09,10.15-49.9,10.15-38.38,0-58.13-21.1-58.13-55C0,95.5,29.63,54.1,78.16,54.1c27.14,0,46.61,14.69,46.61,39,0,33.39-33.18,45.41-86.92,44.07,0,3.74,1.37,9.62,4.12,13.36,5.2,6.68,14.25,10.15,25.77,10.15a86.2,86.2,0,0,0,37.56-8.28Zm-34.82-98c-18.37,0-28.79,14.69-31.53,27,30.71.27,46.06-4,46.06-15.76C87.75,86.69,82.27,82.15,73.22,82.15Z"/><path class="cls-1" d="M142.86,187.66l17-88.15C163.15,83,165.35,68.52,167,57h35.1l-2.74,21.64h.55c12.61-17.09,29.33-24.57,47.15-24.57,21.94,0,34.28,13.09,34.28,35.52a159,159,0,0,1-2.2,22.18l-14.8,75.86H224.85l14-72.39a86.37,86.37,0,0,0,1.37-14.69c0-9.09-3.29-15.5-13.16-15.5-12.89,0-28,15.76-33.45,44.61l-11.24,58Z"/><path class="cls-1" d="M415.11,180.18c-15.63,7.75-35.09,10.15-49.9,10.15-38.38,0-58.13-21.1-58.13-55,0-39.8,29.62-81.2,78.15-81.2,27.14,0,46.61,14.69,46.61,39,0,33.39-33.18,45.41-86.92,44.07,0,3.74,1.37,9.62,4.12,13.36,5.2,6.68,14.25,10.15,25.77,10.15a86.2,86.2,0,0,0,37.56-8.28Zm-34.82-98c-18.37,0-28.79,14.69-31.53,27,30.71.27,46.06-4,46.06-15.76C394.82,86.69,389.34,82.15,380.29,82.15Z"/><path class="cls-1" d="M449.93,187.66,465,109.93c3.84-19.77,5.49-41.68,6.86-52.9h34.27c-.82,8.82-1.64,17.64-2.47,26.72h.83c9.32-17.37,24.4-29.65,42.77-29.65a70.38,70.38,0,0,1,7.4.26L547,91.76a47,47,0,0,0-6.3-.27c-25.23,0-37,21.91-42,47.55l-9.32,48.62Z"/><path class="cls-1" d="M561.22,205.82c7.41,4.28,23.86,7.22,35.1,7.22,19.74,0,34.55-8.55,40-34.73l2.19-10.95H638c-10.42,13.09-22.49,19.23-38.39,19.23-26.6,0-42.77-21.1-43.05-46.48,0-43.27,31.53-86,89.94-86,18.91,0,35.64,3.2,49.62,9.08L675.83,170.83c-4.66,24-12.06,45.41-28.24,58-14.53,11.22-34,14.69-51.82,14.69s-34.55-3.21-43.59-8.28ZM653.35,85.88c-3-1.33-8.77-2.4-14.26-2.4-23.85,0-40.85,25.91-40.85,50.75,0,13.09,6,22.71,18.1,22.71,12.88,0,26-13.89,30.16-36.06Z"/><path class="cls-1" d="M713.76,187.66,739.26,57h39.48l-25.5,130.63ZM744.74,22C745,9,755.43.14,767.5.14c11.52,0,19.74,7.48,19.74,19,0,13.63-10.69,21.64-23.31,21.64C753,40.74,744.74,33.53,744.74,22Z"/><path class="cls-1" d="M904.3,180.18c-15.63,7.75-35.09,10.15-49.9,10.15-38.38,0-58.13-21.1-58.13-55,0-39.8,29.62-81.2,78.15-81.2,27.14,0,46.61,14.69,46.61,39,0,33.39-33.18,45.41-86.92,44.07,0,3.74,1.37,9.62,4.11,13.36,5.21,6.68,14.26,10.15,25.78,10.15a86.2,86.2,0,0,0,37.56-8.28Zm-34.82-98c-18.37,0-28.79,14.69-31.53,27,30.71.27,46.06-4,46.06-15.76C884,86.69,878.53,82.15,869.48,82.15Z"/><path class="cls-1" d="M971.72,117.67h.55c3.29-4.54,8-10.15,11.79-14.69L1023,58.37h29.07l-51.28,53.16,58.41,76.13h-29.34l-45.79-62L971.72,139v48.62H947.87V-2h23.85Z"/><path class="cls-1" d="M1199.73,122c0,47.81-34,68.65-66.08,68.65-35.92,0-63.61-25.65-63.61-66.52,0-43.27,29.06-68.65,65.8-68.65C1174,55.43,1199.73,82.41,1199.73,122Zm-105.29,1.33c0,28.32,16.72,49.69,40.3,49.69,23,0,40.31-21.1,40.31-50.22,0-21.91-11.24-49.69-39.76-49.69S1094.44,98.71,1094.44,123.28Z"/><path class="cls-1" d="M1237.19,93.36c0-13.35-.28-24.3-1.1-35h21.39l1.37,21.37h.55c6.58-12.29,21.93-24.31,43.87-24.31,18.37,0,46.88,10.69,46.88,55v77.2H1326V113.13c0-20.83-8-38.2-30.7-38.2-15.91,0-28.25,10.95-32.36,24a33,33,0,0,0-1.64,11v77.73h-24.13Z"/><path class="cls-1" d="M1381.31,174l60-76.13c5.76-7,11.25-13.09,17.28-20v-.53h-71.84v-19H1488l-.28,14.69-59.22,75.07c-5.49,7.21-11,13.62-17,20.3V169h77.59v18.7H1381.31Z"/><path class="cls-1" d="M1529.71,127.29c.55,31.79,21.39,44.88,45.52,44.88,17.27,0,27.69-2.94,36.74-6.68l4.11,16.83c-8.5,3.74-23,8-44.14,8-40.85,0-65.26-26.18-65.26-65.18s23.58-69.72,62.24-69.72c43.33,0,54.84,37.13,54.84,60.91a87.19,87.19,0,0,1-.82,11Zm70.74-16.83c.28-15-6.3-38.2-33.45-38.2-24.4,0-35.09,21.91-37,38.2Z"/><path class="cls-1" d="M1659.39,100.58c0-16.57-.55-29.92-1.1-42.21H1680l1.1,22.17h.55c9.87-15.76,25.5-25.11,47.16-25.11,32.08,0,56.21,26.45,56.21,65.72,0,46.48-29.07,69.45-60.33,69.45-17.54,0-32.9-7.48-40.85-20.3h-.55v70.25h-23.85ZM1683.24,135a51.45,51.45,0,0,0,1.1,9.61,37.07,37.07,0,0,0,36.19,27.52c25.5,0,40.31-20.3,40.31-50,0-25.91-14-48.08-39.49-48.08-16.45,0-31.8,11.49-36.46,29.12a36.92,36.92,0,0,0-1.65,9.61Z"/><path class="cls-1" d="M1848.92,21.24V58.37h34.55v17.9h-34.55V146c0,16,4.66,25.11,18.09,25.11a55.17,55.17,0,0,0,14-1.6l1.09,17.63c-4.66,1.87-12.06,3.2-21.38,3.2-11.24,0-20.29-3.47-26-9.88-6.85-6.95-9.32-18.43-9.32-33.66V76.27h-20.57V58.37h20.57v-31Z"/><path class="cls-1" d="M1923,127.29c.55,31.79,21.39,44.88,45.52,44.88,17.27,0,27.69-2.94,36.74-6.68l4.11,16.83c-8.5,3.74-23,8-44.14,8-40.86,0-65.26-26.18-65.26-65.18s23.58-69.72,62.24-69.72c43.32,0,54.84,37.13,54.84,60.91a87.19,87.19,0,0,1-.82,11Zm70.74-16.83c.28-15-6.3-38.2-33.45-38.2-24.4,0-35.09,21.91-37,38.2Z"/><path class="cls-1" d="M162,305.93,133.45,451.74c-3.47,17.66-6.07,37-6.65,53.27H88.68l2-22.15h-.58C77.7,501.09,60.37,508.1,43.9,508.1c-24,0-43.9-18.51-43.9-51.88,0-47.67,35.53-91.41,89-91.41a59.25,59.25,0,0,1,19.36,3.09l12.13-62Zm-59.79,94.21c-3.18-2.52-9.53-4.76-16.46-4.76-24.84,0-42.46,28-42.46,54.39,0,16.55,7.51,25.8,19.64,25.8,11.84,0,26.57-12.34,32.06-38.41Z"/><path class="cls-1" d="M270.36,497.16c-16.46,8.14-37,10.66-52.57,10.66-40.44,0-61.23-22.15-61.23-57.76,0-41.79,31.19-85.25,82.32-85.25,28.59,0,49.1,15.42,49.1,40.94,0,35.05-35,47.67-91.56,46.27,0,3.92,1.44,10.09,4.33,14,5.49,7,15,10.65,27.15,10.65A91,91,0,0,0,267.47,468ZM233.68,394.25c-19.36,0-30.33,15.43-33.22,28.32,32.35.29,48.53-4.2,48.53-16.54C249,399,243.21,394.25,233.68,394.25Z"/><path class="cls-1" d="M444.53,367.9l-18.19,92.53c-3.47,17.39-5.49,32.25-7.51,44.58H382.14l2.6-22.43h-.58c-14.44,17.95-31.77,25.52-48.81,25.52-22.53,0-36.11-12.34-36.11-38.42a120.35,120.35,0,0,1,2.89-25.23l14.73-76.55h41.6L344.3,441.36a106.79,106.79,0,0,0-2,17.95c0,9,3.47,16,14.15,16,14.16,0,28.6-16.54,34.09-44l12.42-63.37Z"/><path class="cls-1" d="M527.14,329.48l-7.51,38.42h30l-6.06,30.56h-30L504,445c-1.16,5.61-2.32,12.62-2.32,17.38,0,6.73,2.89,11.5,11.85,11.5a79.79,79.79,0,0,0,11.55-.56L520.21,505c-5.2,2-15.6,3.09-24.55,3.09-24.84,0-36.68-12.34-36.68-29.44,0-7.58.86-15.15,2.88-25.52l11-54.68H454.93l5.78-30.56h18.2L484.68,339Z"/><path class="cls-1" d="M547.07,468.84c8.09,3.93,23.4,9.54,37,9.54,11.85,0,17.91-5.61,17.91-12.34s-4.62-11.5-17.62-17.67c-16.46-7.85-30-19.35-30-36.45,0-28.32,25.71-47.11,62.1-47.11,16.47,0,29.47,3.09,36.4,7L643,400.42a67.81,67.81,0,0,0-28.31-6.17c-11,0-18.48,4.77-18.48,12.06,0,5.61,5.77,10.38,17.33,15.7,15.31,7.58,31.48,18.51,31.48,37.58,0,31.4-27.44,48.23-64.7,48.23-17.91,0-34.95-4.49-43.33-10.66Z"/><path class="cls-1" d="M760.53,500.81c-9,4.2-23.4,7-40.15,7-35,0-59.5-20.47-59.5-56.08,0-48.79,38.41-86.93,92.14-86.93,12.13,0,22.53,2.25,28.59,4.77L771.5,400.42a49.09,49.09,0,0,0-19.06-3.36c-29.75,0-48,24.39-48,50.19,0,18.79,12.13,28.32,27.73,28.32a73,73,0,0,0,28-5.61Z"/><path class="cls-1" d="M776.13,505l38.7-199.08h41.59l-15.59,79.35.57.28c11.56-12.62,26.29-20.75,45.06-20.75,22,0,35.53,13.46,35.53,37a158.38,158.38,0,0,1-2.6,24.67L904.08,505H862.49l14.44-75.14a81.46,81.46,0,0,0,2-17.11c0-9-4-15.42-14.44-15.42-14.44,0-29.17,17.1-34.66,44.86L817.72,505Z"/><path class="cls-1" d="M933,505l39.28-199.08h41.59L974.56,505Z"/><path class="cls-1" d="M1096.16,505c.29-8.13,1.16-17.38,2-27.19h-.87c-13,22.71-30.91,30.28-47.37,30.28-25.42,0-42.75-19.07-42.75-47.67,0-46.27,31.48-95.62,101.1-95.62a173.14,173.14,0,0,1,46.79,6.73l-15,71.79c-3.47,17.66-6.07,44.58-5.49,61.68ZM1108.3,396.5a66.5,66.5,0,0,0-11.27-1.12c-26.86,0-46.5,32-46.5,57.48,0,13.46,5.49,22.71,17,22.71,12.42,0,27.73-13.74,34.08-47.39Z"/><path class="cls-1" d="M1159.42,505l17.9-92.53c3.47-17.38,5.78-32.53,7.51-44.58h37l-2.89,22.71h.58c13.28-17.95,30.9-25.8,49.68-25.8,23.1,0,36.1,13.74,36.1,37.3a166.13,166.13,0,0,1-2.31,23.27L1287.37,505h-41.59l14.73-76A89.67,89.67,0,0,0,1262,413.6c0-9.53-3.47-16.26-13.87-16.26-13.57,0-29.46,16.54-35.24,46.83L1201,505Z"/><path class="cls-1" d="M1482.05,305.93l-28.59,145.81c-3.47,17.66-6.07,37-6.64,53.27h-38.13l2-22.15h-.58c-12.42,18.23-29.75,25.24-46.21,25.24-24,0-43.91-18.51-43.91-51.88,0-47.67,35.53-91.41,89-91.41a59.23,59.23,0,0,1,19.35,3.09l12.13-62Zm-59.79,94.21c-3.17-2.52-9.53-4.76-16.46-4.76-24.84,0-42.46,28-42.46,54.39,0,16.55,7.51,25.8,19.64,25.8,11.84,0,26.57-12.34,32.06-38.41Z"/></svg>