<?xml version="1.0" encoding="UTF-8" standalone="no"?>
<!-- Created with Inkscape (http://www.inkscape.org/) -->

<svg
   version="1.1"
   id="svg2"
   width="377.91467"
   height="74.932533"
   viewBox="0 0 377.91467 74.932533"
   sodipodi:docname="Logo_Encrease_Vec_230131.ai"
   xmlns:inkscape="http://www.inkscape.org/namespaces/inkscape"
   xmlns:sodipodi="http://sodipodi.sourceforge.net/DTD/sodipodi-0.dtd"
   xmlns="http://www.w3.org/2000/svg"
   xmlns:svg="http://www.w3.org/2000/svg">
  <defs
     id="defs6">
    <clipPath
       clipPathUnits="userSpaceOnUse"
       id="clipPath16">
      <path
         d="M 0,56.199 H 283.436 V 0 H 0 Z"
         id="path14" />
    </clipPath>
  </defs>
  <sodipodi:namedview
     id="namedview4"
     pagecolor="#ffffff"
     bordercolor="#000000"
     borderopacity="0.25"
     inkscape:showpageshadow="2"
     inkscape:pageopacity="0.0"
     inkscape:pagecheckerboard="0"
     inkscape:deskcolor="#d1d1d1" />
  <g
     id="g8"
     inkscape:groupmode="layer"
     inkscape:label="Logo_Encrease_Vec_230131"
     transform="matrix(1.3333333,0,0,-1.3333333,0,74.932533)">
    <g
       id="g10">
      <g
         id="g12"
         clip-path="url(#clipPath16)">
        <g
           id="g18"
           transform="translate(41.987,40.0861)">
          <path
             d="m 0,0 h -26.367 c -0.552,0 -1,-0.447 -1,-1 v -21.973 c 0,-0.552 0.448,-1 1,-1 H 0 c 0.552,0 1,0.448 1,1 v 1.465 c 0,0.553 -0.448,1 -1,1 h -23.902 v 6.789 h 22.437 c 0.552,0 1,0.448 1,1 v 1.465 c 0,0.553 -0.448,1 -1,1 h -22.437 v 6.789 H 0 c 0.552,0 1,0.447 1,1 V -1 C 1,-0.447 0.552,0 0,0"
             style="fill:#1d1d1b;fill-opacity:1;fill-rule:nonzero;stroke:none"
             id="path20" />
        </g>
        <g
           id="g22"
           transform="translate(74.03,40.0861)">
          <path
             d="m 0,0 h -1.465 c -0.552,0 -1,-0.447 -1,-1 V -18.457 L -25.737,0.421 c -0.3,0.243 -0.712,0.292 -1.06,0.126 -0.349,-0.165 -0.57,-0.517 -0.57,-0.902 v -22.618 c 0,-0.552 0.448,-1 1,-1 h 1.465 c 0.552,0 1,0.448 1,1 V -5.516 L -0.63,-24.394 c 0.182,-0.147 0.405,-0.223 0.63,-0.223 0.146,0 0.293,0.032 0.43,0.097 0.348,0.166 0.57,0.517 0.57,0.903 L 1,-1 C 1,-0.447 0.552,0 0,0"
             style="fill:#1d1d1b;fill-opacity:1;fill-rule:nonzero;stroke:none"
             id="path24" />
        </g>
        <g
           id="g26"
           transform="translate(86.239,36.6213)">
          <path
             d="m 0,0 h 14.648 c 2.38,0 3.395,-1.016 3.395,-3.395 0,-0.552 0.448,-1 1,-1 h 1.465 c 0.552,0 1,0.448 1,1 0,4.488 -2.372,6.86 -6.86,6.86 L 0,3.465 c -4.487,0 -6.859,-2.372 -6.859,-6.86 v -10.253 c 0,-4.488 2.372,-6.86 6.859,-6.86 h 14.648 c 4.488,0 6.86,2.372 6.86,6.86 0,0.552 -0.448,1 -1,1 h -1.465 c -0.552,0 -1,-0.448 -1,-1 0,-2.379 -1.015,-3.395 -3.395,-3.395 H 0 c -2.379,0 -3.395,1.016 -3.395,3.395 V -3.395 C -3.395,-1.016 -2.379,0 0,0"
             style="fill:#1d1d1b;fill-opacity:1;fill-rule:nonzero;stroke:none"
             id="path28" />
        </g>
        <g
           id="g30"
           transform="translate(115.5613,36.6213)">
          <path
             d="m 0,0 h 18.043 c 2.379,0 3.394,-1.016 3.394,-3.395 0,-2.378 -1.015,-3.394 -3.394,-3.394 H 0 Z M 18.043,3.465 H -2.465 c -0.552,0 -1,-0.447 -1,-1 v -21.973 c 0,-0.553 0.448,-1 1,-1 H -1 c 0.552,0 1,0.447 1,1 v 9.254 h 18.043 c 2.379,0 3.394,-1.016 3.394,-3.394 v -5.86 c 0,-0.553 0.448,-1 1,-1 h 1.465 c 0.553,0 1,0.447 1,1 v 5.86 c 0,2.25 -0.596,3.966 -1.775,5.127 1.179,1.16 1.775,2.876 1.775,5.126 0,4.488 -2.372,6.86 -6.859,6.86"
             style="fill:#1d1d1b;fill-opacity:1;fill-rule:nonzero;stroke:none"
             id="path32" />
        </g>
        <g
           id="g34"
           transform="translate(172.1809,40.0861)">
          <path
             d="m 0,0 h -26.367 c -0.552,0 -1,-0.447 -1,-1 v -21.973 c 0,-0.552 0.448,-1 1,-1 H 0 c 0.552,0 1,0.448 1,1 v 1.465 c 0,0.553 -0.448,1 -1,1 h -23.902 v 6.789 h 22.437 c 0.552,0 1,0.448 1,1 v 1.465 c 0,0.553 -0.448,1 -1,1 h -22.437 v 6.789 H 0 c 0.552,0 1,0.447 1,1 V -1 C 1,-0.447 0.552,0 0,0"
             style="fill:#1d1d1b;fill-opacity:1;fill-rule:nonzero;stroke:none"
             id="path36" />
        </g>
        <g
           id="g38"
           transform="translate(185.0046,25.4377)">
          <path
             d="M 0,0 5.845,9.384 11.691,0 Z m 6.694,14.543 c -0.365,0.588 -1.332,0.588 -1.697,0 L -8.919,-7.796 c -0.193,-0.308 -0.203,-0.696 -0.026,-1.014 0.176,-0.317 0.511,-0.514 0.874,-0.514 h 1.714 c 0.345,0 0.667,0.178 0.849,0.471 l 3.354,5.388 h 15.998 l 3.355,-5.388 c 0.182,-0.293 0.503,-0.471 0.848,-0.471 h 1.714 c 0.364,0 0.698,0.197 0.874,0.514 0.177,0.318 0.167,0.706 -0.025,1.014 z"
             style="fill:#1d1d1b;fill-opacity:1;fill-rule:nonzero;stroke:none"
             id="path40" />
        </g>
        <g
           id="g42"
           transform="translate(214.1623,36.6213)">
          <path
             d="m 0,0 h 14.648 c 2.379,0 3.395,-1.016 3.395,-3.395 0,-0.552 0.447,-1 1,-1 h 1.465 c 0.553,0 1,0.448 1,1 0,4.488 -2.372,6.86 -6.86,6.86 L 0,3.465 c -4.487,0 -6.859,-2.372 -6.859,-6.86 0,-4.487 2.372,-6.859 6.859,-6.859 h 14.648 c 2.379,0 3.395,-1.016 3.395,-3.394 0,-2.379 -1.016,-3.395 -3.395,-3.395 H 0 c -2.379,0 -3.395,1.016 -3.395,3.395 0,0.552 -0.447,1 -1,1 h -1.464 c -0.553,0 -1,-0.448 -1,-1 0,-4.488 2.372,-6.86 6.859,-6.86 h 14.648 c 4.488,0 6.86,2.372 6.86,6.86 0,4.487 -2.372,6.859 -6.86,6.859 L 0,-6.789 c -2.379,0 -3.395,1.016 -3.395,3.394 C -3.395,-1.016 -2.379,0 0,0"
             style="fill:#1d1d1b;fill-opacity:1;fill-rule:nonzero;stroke:none"
             id="path44" />
        </g>
        <g
           id="g46"
           transform="translate(267.3869,36.6213)">
          <path
             d="m 0,0 c 0.553,0 1,0.447 1,1 v 1.465 c 0,0.553 -0.447,1 -1,1 h -26.367 c -0.553,0 -1,-0.447 -1,-1 v -21.973 c 0,-0.553 0.447,-1 1,-1 H 0 c 0.553,0 1,0.447 1,1 v 1.465 c 0,0.553 -0.447,1 -1,1 h -23.902 v 6.789 h 22.437 c 0.553,0 1,0.447 1,1 v 1.465 c 0,0.553 -0.447,1 -1,1 H -23.902 V 0 Z"
             style="fill:#1d1d1b;fill-opacity:1;fill-rule:nonzero;stroke:none"
             id="path48" />
        </g>
      </g>
    </g>
  </g>
</svg>
