<svg width="294" height="354" viewBox="0 0 294 354" fill="none" xmlns="http://www.w3.org/2000/svg">
<path d="M284 196L0 293H284V196Z" fill="#E2DFDF"/>
<path d="M88 353.5V292.5H284V353.5H237V313H155.5V353.5H88Z" fill="#E2DFDF"/>
<path d="M284 10V354" stroke="#707070" stroke-width="1.5"/>
<path d="M0 293H293" stroke="#707070" stroke-width="1.5"/>
<path d="M274 261H293" stroke="#707070" stroke-width="1.5"/>
<path d="M274 229H293" stroke="#707070" stroke-width="1.5"/>
<path d="M274 197H293" stroke="#707070" stroke-width="1.5"/>
<path d="M274 165H293" stroke="#707070" stroke-width="1.5"/>
<path d="M274 133H293" stroke="#707070" stroke-width="1.5"/>
<path d="M274 101H293" stroke="#707070" stroke-width="1.5"/>
<path d="M274 69H293" stroke="#707070" stroke-width="1.5"/>
<path d="M274 37H293" stroke="#707070" stroke-width="1.5"/>
<path d="M274 10H293" stroke="#707070" stroke-width="1.5"/>
<path d="M284 207C289.523 207 294 202.523 294 197C294 191.477 289.523 187 284 187C278.477 187 274 191.477 274 197C274 202.523 278.477 207 284 207Z" fill="#F39200"/>
</svg>
