<svg width="3020" height="3020" viewBox="0 0 3020 3020" fill="none" xmlns="http://www.w3.org/2000/svg">
<path fill-rule="evenodd" clip-rule="evenodd" d="M887.468 9.06C1048.49 1.64727 1099.83 0 1510 0C1920.17 0 1971.51 1.78454 2132.39 9.06C2293.28 16.3355 2403.1 42.0055 2499.19 79.2064C2599.81 117.231 2691.09 176.67 2766.59 253.543C2843.47 328.905 2902.77 420.055 2940.66 520.813C2977.99 616.904 3003.53 726.722 3010.94 887.331C3018.35 1048.63 3020 1099.97 3020 1510C3020 1920.17 3018.22 1971.51 3010.94 2132.53C3003.66 2293.14 2977.99 2402.96 2940.66 2499.05C2902.77 2599.82 2843.37 2691.12 2766.59 2766.59C2691.09 2843.47 2599.81 2902.77 2499.19 2940.66C2403.1 2977.99 2293.28 3003.53 2132.67 3010.94C1971.51 3018.35 1920.17 3020 1510 3020C1099.83 3020 1048.49 3018.22 887.468 3010.94C726.859 3003.66 617.041 2977.99 520.95 2940.66C420.181 2902.76 328.881 2843.36 253.405 2766.59C176.585 2691.19 117.137 2599.93 79.2064 2499.19C42.0055 2403.1 16.4727 2293.28 9.06 2132.67C1.64727 1971.37 0 1920.03 0 1510C0 1099.83 1.78454 1048.49 9.06 887.605C16.3355 726.722 42.0055 616.904 79.2064 520.813C117.193 420.066 176.686 328.811 253.543 253.405C328.911 176.602 420.119 117.154 520.813 79.2064C616.904 42.0055 726.722 16.4727 887.331 9.06H887.468ZM2120.18 280.86C1960.94 273.585 1913.17 272.075 1510 272.075C1106.83 272.075 1059.06 273.585 899.823 280.86C752.529 287.586 672.636 312.158 619.375 332.886C548.954 360.341 498.575 392.875 445.725 445.725C395.626 494.463 357.071 553.797 332.886 619.375C312.158 672.636 287.586 752.529 280.86 899.823C273.585 1059.06 272.075 1106.83 272.075 1510C272.075 1913.17 273.585 1960.94 280.86 2120.18C287.586 2267.47 312.158 2347.36 332.886 2400.63C357.046 2466.1 395.62 2525.54 445.725 2574.28C494.456 2624.38 553.895 2662.95 619.375 2687.11C672.636 2707.84 752.529 2732.41 899.823 2739.14C1059.06 2746.42 1106.69 2747.93 1510 2747.93C1913.31 2747.93 1960.94 2746.42 2120.18 2739.14C2267.47 2732.41 2347.36 2707.84 2400.63 2687.11C2471.05 2659.66 2521.43 2627.13 2574.28 2574.28C2624.38 2525.54 2662.95 2466.1 2687.11 2400.63C2707.84 2347.36 2732.41 2267.47 2739.14 2120.18C2746.42 1960.94 2747.93 1913.17 2747.93 1510C2747.93 1106.83 2746.42 1059.06 2739.14 899.823C2732.41 752.529 2707.84 672.636 2687.11 619.375C2659.66 548.954 2627.13 498.575 2574.28 445.725C2525.53 395.63 2466.2 357.075 2400.63 332.886C2347.36 312.158 2267.47 287.586 2120.18 280.86V280.86ZM1317.13 1975.49C1424.84 2020.33 1544.78 2026.38 1656.46 1992.61C1768.14 1958.84 1864.63 1887.35 1929.45 1790.34C1994.27 1693.34 2023.41 1576.83 2011.88 1460.73C2000.34 1344.63 1948.86 1236.14 1866.22 1153.78C1813.54 1101.13 1749.84 1060.82 1679.71 1035.74C1609.58 1010.67 1534.77 1001.45 1460.65 1008.76C1386.53 1016.07 1314.96 1039.73 1251.08 1078.02C1187.2 1116.31 1132.6 1168.29 1091.22 1230.22C1049.84 1292.14 1022.71 1362.47 1011.77 1436.14C1000.83 1509.81 1006.37 1584.99 1027.97 1656.27C1049.58 1727.54 1086.72 1793.14 1136.72 1848.34C1186.72 1903.54 1248.33 1946.96 1317.13 1975.49ZM961.184 961.184C1033.26 889.112 1118.82 831.942 1212.98 792.937C1307.15 753.932 1408.08 733.856 1510 733.856C1611.92 733.856 1712.85 753.932 1807.02 792.937C1901.18 831.942 1986.74 889.112 2058.82 961.184C2130.89 1033.26 2188.06 1118.82 2227.06 1212.98C2266.07 1307.15 2286.14 1408.08 2286.14 1510C2286.14 1611.92 2266.07 1712.85 2227.06 1807.02C2188.06 1901.18 2130.89 1986.74 2058.82 2058.82C1913.26 2204.37 1715.85 2286.14 1510 2286.14C1304.15 2286.14 1106.74 2204.37 961.184 2058.82C815.628 1913.26 733.856 1715.85 733.856 1510C733.856 1304.15 815.628 1106.74 961.184 961.184V961.184ZM2458.28 849.444C2476.14 832.596 2490.44 812.336 2500.33 789.864C2510.22 767.391 2515.5 743.163 2515.85 718.613C2516.21 694.063 2511.64 669.691 2502.41 646.94C2493.18 624.189 2479.48 603.521 2462.12 586.16C2444.76 568.799 2424.09 555.098 2401.34 545.867C2378.59 536.637 2354.21 532.066 2329.66 532.424C2305.12 532.782 2280.89 538.062 2258.41 547.951C2235.94 557.84 2215.68 572.138 2198.83 589.998C2166.07 624.732 2148.13 670.868 2148.83 718.613C2149.52 766.358 2168.8 811.952 2202.56 845.716C2236.33 879.48 2281.92 898.756 2329.66 899.452C2377.41 900.148 2423.55 882.209 2458.28 849.444V849.444Z" fill="white"/>
</svg>
