<svg xmlns="http://www.w3.org/2000/svg" width="60" height="60" viewBox="1047 556.95 60 60"><g data-name="Gruppe 160"><g data-name="Gruppe 154"><g data-name="Gruppe 152"><g data-name="Ellipse 7"><path d="M1047 586.9a30 30 0 1 1 0 .1z" fill-rule="evenodd"/><path d="M1048 586.902a29 29 0 1 1 0 .096z" stroke-linejoin="round" stroke-linecap="round" stroke-width="1.93334" stroke="#f39200" fill="transparent"/></g></g></g><g data-name="Gruppe 159"><g data-name="Gruppe 155"><path d="m1064.666 582.07 25.561-.112m-26.26 7.07 27.334.075m-9.683-12.624 1.24 19.436m-9.804-19.618-1.282 19.623m19.199-.005h-26.665c-.71 0-1.261-.624-1.174-1.328l2.126-17.238a1.194 1.194 0 0 1 1.185-1.046h22.018c.579 0 1.07.424 1.154.996l2.523 17.267a1.178 1.178 0 0 1-1.167 1.349Z" stroke-linejoin="round" stroke-linecap="round" stroke-width="1.5" stroke="#fff" fill="transparent" data-name="Pfad 12"/></g><g data-name="Gruppe 158"><g data-name="Gruppe 157"><path d="m1072.867 583.004 4.174 15.573a.534.534 0 0 1-.03.36c-.22.476-.883 1.645-2.308 2.142-1.69.59-3.144-.223-3.63-.547a.525.525 0 0 1-.217-.305l-4.151-15.492a.537.537 0 0 0-.336-.362c-2.231-.834-3.867-2.745-4.274-5.034-.47-2.664.93-4.698 1.479-5.377.152-.188.347-.338.575-.416.002-.002.004-.002.005-.002l.266-.09c.046-.015.348-.075.361-.03l1.132 4.223a.535.535 0 0 0 .248.325l1.981 1.145c.256.146.585.059.733-.197l1.23-2.13a.544.544 0 0 0 .054-.406l-1.12-4.18c.1-.05.218-.1.354-.142.002-.002.003-.002.005-.002a1.443 1.443 0 0 1 1.03.08c.903.416 2.782 1.516 3.632 3.805.814 2.196.386 4.69-1.093 6.588a.54.54 0 0 0-.1.471" fill-rule="evenodd" data-name="Pfad 13"/></g><g data-name="Gruppe 156"><path d="m1072.867 583.004 4.174 15.573a.534.534 0 0 1-.03.36c-.22.476-.883 1.645-2.308 2.142-1.69.59-3.144-.223-3.63-.547a.525.525 0 0 1-.217-.305l-4.151-15.492a.537.537 0 0 0-.336-.362c-2.231-.834-3.867-2.745-4.274-5.034-.47-2.664.93-4.698 1.479-5.377.152-.188.347-.338.575-.416.002-.002.004-.002.005-.002l.266-.09c.046-.015.348-.075.361-.03l1.132 4.223a.535.535 0 0 0 .248.325l1.981 1.145c.256.146.585.059.733-.197l1.23-2.13a.544.544 0 0 0 .054-.406l-1.12-4.18c.1-.05.218-.1.354-.142.002-.002.003-.002.005-.002a1.443 1.443 0 0 1 1.03.08c.903.416 2.782 1.516 3.632 3.805.814 2.196.386 4.69-1.093 6.588a.54.54 0 0 0-.1.471Z" stroke-linejoin="round" stroke-linecap="round" stroke-width="1.5" stroke="#fff" fill="transparent" data-name="Pfad 14"/></g></g></g></g></svg>