<svg xmlns="http://www.w3.org/2000/svg" width="60" height="60" viewBox="1047 365.95 60 60"><g data-name="Gruppe 151"><g data-name="Ellipse 7"><path d="M1047 395.9a30 30 0 1 1 0 .1z" fill-rule="evenodd"/><path d="M1048 395.902a29 29 0 1 1 0 .096z" stroke-linejoin="round" stroke-linecap="round" stroke-width="1.93334" stroke="#a9bfa7" fill="transparent"/></g><g data-name="Gruppe 150"><g data-name="Pfad 23"><path d="M1077.198 410.116c-12 0-12.142-11.958-12.142-12.071v-11.446c0-.28.16-.533.411-.654l11.433-5.354a.64.64 0 0 1 .596 0l11.432 5.354c.252.12.412.375.412.654v11.488c.028.071-.114 12.029-12.142 12.029Zm-10.694-23.12v11.049c0 .426.156 10.65 10.722 10.65 10.566 0 10.722-10.224 10.722-10.65v-11.049l-10.75-5.027-10.694 5.027Z" fill="#fff" fill-rule="evenodd"/><path d="M1077.198 410.116c-12 0-12.142-11.958-12.142-12.071v-11.446c0-.28.16-.533.411-.654l11.433-5.354a.64.64 0 0 1 .596 0l11.432 5.354c.252.12.412.375.412.654v11.488c.028.071-.114 12.029-12.142 12.029Zm-10.694-23.12v11.049c0 .426.156 10.65 10.722 10.65 10.566 0 10.722-10.224 10.722-10.65v-11.049l-10.75-5.027-10.694 5.027Z" stroke-linejoin="round" stroke-linecap="round" stroke-width=".5" stroke="#fff" fill="transparent"/></g><g data-name="Pfad 24"><path d="M1066.433 401.922a.724.724 0 0 1-.511-.213.724.724 0 0 1 0-1.009l17.041-17.041a.682.682 0 0 1 .994 0 .71.71 0 0 1 0 1.008l-17.041 17.042a.71.71 0 0 1-.483.213Z" fill="#fff" fill-rule="evenodd"/><path d="M1066.433 401.922a.724.724 0 0 1-.511-.213.724.724 0 0 1 0-1.009l17.041-17.041a.682.682 0 0 1 .994 0 .71.71 0 0 1 0 1.008l-17.041 17.042a.71.71 0 0 1-.483.213Z" stroke-linejoin="round" stroke-linecap="round" stroke-width=".5" stroke="#fff" fill="transparent"/></g><g data-name="Pfad 25"><path d="M1070.282 408.142a.696.696 0 0 1-.497-.242.71.71 0 0 1 0-1.008l18.334-18.305a.71.71 0 0 1 1.008 0 .682.682 0 0 1 0 .994l-18.334 18.32a.724.724 0 0 1-.511.24Z" fill="#fff" fill-rule="evenodd"/><path d="M1070.282 408.142a.696.696 0 0 1-.497-.242.71.71 0 0 1 0-1.008l18.334-18.305a.71.71 0 0 1 1.008 0 .682.682 0 0 1 0 .994l-18.334 18.32a.724.724 0 0 1-.511.24Z" stroke-linejoin="round" stroke-linecap="round" stroke-width=".5" stroke="#fff" fill="transparent"/></g></g></g></svg>